<svg xmlns="http://www.w3.org/2000/svg" viewBox="0 0 64 64" role="img" aria-label="SP logo favicon">
  <defs>
    <linearGradient id="g" x1="0%" y1="0%" x2="100%" y2="100%">
      <stop offset="0%" stop-color="#1d4ed8"/>
      <stop offset="100%" stop-color="#0891b2"/>
    </linearGradient>
  </defs>
  <rect x="2" y="2" width="60" height="60" rx="14" fill="#0b1220"/>
  <rect x="2" y="2" width="60" height="60" rx="14" fill="url(#g)" opacity="0.22"/>
  <path d="M20 43V21h13c6 0 10 3.2 10 8.4 0 5.1-4 8.3-10 8.3h-6.4V43H20Zm6.6-10.4h5.4c2.8 0 4.3-1 4.3-3.1s-1.5-3.1-4.3-3.1h-5.4v6.2Z" fill="#e6f0ff"/>
  <path d="M45.8 43H39V21h8.9c6.3 0 10.1 3.8 10.1 10.8 0 7-3.8 11.2-10.1 11.2Zm0-5.5h1.8c2.3 0 3.6-1.8 3.6-5.7 0-3.9-1.3-5.4-3.6-5.4h-1.8v11.1Z" fill="#e6f0ff" transform="translate(-2.5 0)"/>
</svg>
